<?xml version="1.0" standalone="no"?>
<!DOCTYPE svg PUBLIC "-//W3C//DTD SVG 20010904//EN"
 "http://www.w3.org/TR/2001/REC-SVG-20010904/DTD/svg10.dtd">
<svg version="1.0" xmlns="http://www.w3.org/2000/svg"
 width="608.000000pt" height="608.000000pt" viewBox="0 0 608.000000 608.000000"
 preserveAspectRatio="xMidYMid meet">
<metadata>
Created by potrace 1.11, written by Peter Selinger 2001-2013
</metadata>
<g transform="translate(0.000000,608.000000) scale(0.100000,-0.100000)"
fill="#000000" stroke="none">
<path d="M3005 4673 l0 -1408 58 -1 57 -1 0 81 c1 112 1 2663 1 2704 l-1 32
-58 0 -57 0 0 -1407z"/>
<path d="M2085 5936 c-55 -20 -55 -18 -13 -153 22 -71 41 -132 42 -138 2 -5 6
-17 9 -25 10 -28 169 -554 172 -572 2 -10 7 -23 10 -28 3 -5 8 -19 11 -30 7
-34 11 -47 98 -330 157 -510 257 -841 261 -858 2 -9 12 -42 23 -72 11 -30 20
-59 21 -65 3 -14 51 -177 58 -195 3 -8 7 -20 9 -27 13 -63 67 -213 77 -213 15
0 85 24 92 32 4 3 -51 192 -120 419 -69 228 -140 459 -156 514 -17 55 -37 117
-45 138 -7 20 -12 37 -9 37 2 0 -3 16 -11 35 -8 19 -15 38 -15 42 -1 5 -3 13
-5 18 -6 20 -46 160 -49 170 -1 6 -5 17 -8 25 -3 8 -22 69 -42 135 -20 66 -43
140 -51 165 -8 25 -16 52 -18 60 -4 16 -44 148 -101 335 -20 66 -50 165 -66
220 -17 55 -33 107 -36 115 -3 8 -7 20 -9 27 -1 7 -11 41 -22 75 -11 35 -26
84 -33 111 -14 50 -21 53 -74 33z"/>
<path d="M3941 5927 c-12 -31 -51 -161 -50 -167 1 -3 -6 -23 -15 -45 -8 -22
-24 -74 -36 -115 -12 -41 -24 -82 -27 -90 -3 -8 -7 -19 -9 -25 -1 -5 -44 -145
-94 -310 -51 -165 -107 -349 -125 -410 -18 -60 -56 -184 -84 -275 -28 -91 -53
-172 -55 -180 -4 -17 -91 -302 -137 -450 -17 -52 -32 -106 -35 -119 -3 -14 -7
-28 -10 -32 -2 -4 -16 -47 -29 -96 -14 -48 -27 -92 -29 -98 -2 -5 -5 -14 -6
-20 -1 -5 -7 -21 -12 -35 -5 -14 -11 -32 -13 -40 -2 -8 -13 -44 -24 -79 -27
-82 -26 -91 3 -91 14 0 28 -4 31 -10 3 -6 17 -10 30 -10 22 0 27 10 55 103 17
56 40 127 50 157 16 48 39 126 46 155 1 6 14 46 27 90 30 93 158 515 161 530
2 6 11 37 21 70 10 33 20 65 21 70 2 6 31 98 64 205 34 107 63 202 65 211 2 8
10 38 18 65 9 27 59 191 112 364 53 173 118 387 145 475 26 88 51 167 55 176
5 13 -4 20 -41 33 -61 21 -63 20 -73 -7z"/>
<path d="M1195 5513 c-22 -14 -42 -27 -44 -29 -5 -4 420 -638 431 -642 4 -2 8
-8 8 -13 0 -5 70 -113 157 -241 86 -128 233 -348 328 -488 94 -140 276 -411
404 -602 128 -192 237 -348 241 -348 14 0 90 53 90 62 0 5 -11 24 -23 41 -54
72 -157 228 -157 236 0 5 -4 11 -8 13 -5 2 -81 111 -169 243 -252 378 -501
749 -510 760 -5 6 -20 28 -33 50 -13 22 -27 42 -30 45 -5 5 -33 45 -55 81 -13
22 -458 684 -526 783 -29 42 -55 76 -58 76 -4 0 -24 -12 -46 -27z"/>
<path d="M4734 5378 c-60 -90 -114 -169 -121 -176 -6 -6 -15 -21 -18 -32 -3
-11 -10 -20 -14 -20 -5 0 -14 -13 -21 -30 -7 -16 -16 -30 -21 -30 -4 0 -11 -9
-14 -20 -3 -11 -12 -26 -18 -32 -7 -7 -39 -53 -72 -103 -32 -49 -63 -91 -67
-93 -4 -2 -8 -8 -8 -13 0 -5 -24 -44 -53 -86 -30 -43 -201 -298 -382 -568
-181 -269 -398 -593 -482 -718 -85 -125 -156 -233 -158 -240 -4 -11 66 -67 84
-67 4 0 71 93 148 208 76 114 186 277 243 362 57 85 107 157 112 158 4 2 8 8
8 13 0 11 182 283 193 287 4 2 7 10 7 18 0 8 5 14 10 14 6 0 10 4 10 9 0 5 50
82 110 171 61 89 110 166 110 170 0 5 4 10 8 12 4 2 116 165 249 363 132 198
269 402 303 453 35 51 61 94 59 96 -17 13 -85 56 -90 56 -4 0 -55 -73 -115
-162z"/>
<path d="M202 4678 c-20 -10 -44 -24 -52 -31 -32 -26 -83 -100 -101 -147 -37
-98 -18 -170 60 -222 25 -18 48 -35 49 -40 2 -4 8 -8 13 -8 5 0 51 -29 102
-63 127 -88 316 -216 482 -327 77 -52 141 -98 143 -102 2 -4 8 -8 12 -8 8 0
93 -56 135 -87 6 -5 44 -30 85 -58 41 -27 77 -53 78 -57 2 -5 8 -8 14 -8 5 0
24 -11 42 -25 18 -14 38 -25 44 -25 6 0 12 -4 14 -8 2 -5 66 -51 143 -102 77
-52 142 -98 143 -102 2 -4 9 -8 15 -8 6 0 19 -7 29 -17 10 -9 27 -21 38 -27
19 -11 272 -182 855 -578 233 -158 341 -225 375 -233 74 -18 142 -22 200 -11
37 7 190 78 212 99 7 7 94 67 193 133 99 67 209 141 245 165 36 24 67 47 68
52 2 4 8 7 13 7 7 0 95 56 109 70 3 3 93 64 200 135 107 72 197 132 200 135 3
3 26 19 52 35 27 17 48 33 48 38 0 4 5 7 10 7 9 0 111 66 145 93 31 25 158
107 165 107 5 0 10 3 12 8 2 4 84 62 183 128 99 67 214 145 255 173 41 28 82
56 90 61 8 5 41 28 73 50 32 22 62 40 67 40 4 0 10 4 12 8 2 4 80 59 173 122
437 292 420 277 411 388 -3 37 -12 69 -21 78 -8 9 -15 22 -15 29 0 8 -26 41
-58 74 -62 63 -108 83 -170 75 -22 -2 -121 -63 -295 -181 -144 -98 -320 -217
-392 -265 -71 -48 -135 -91 -141 -96 -5 -5 -21 -15 -35 -22 -13 -7 -26 -16
-29 -19 -3 -4 -81 -58 -175 -121 -93 -62 -224 -150 -290 -195 -111 -76 -532
-360 -635 -429 -25 -17 -46 -34 -48 -38 -2 -4 -9 -8 -15 -8 -7 0 -23 -9 -37
-20 -14 -12 -104 -74 -201 -139 -160 -107 -178 -117 -191 -102 -81 89 -254
130 -378 89 -19 -6 -37 -11 -40 -11 -9 0 -84 -49 -107 -70 l-22 -20 -93 63
c-51 34 -160 108 -243 163 -82 56 -151 104 -153 109 -2 4 -8 8 -13 8 -6 0 -33
17 -62 38 -29 20 -60 42 -69 47 -18 11 -433 291 -542 366 -96 66 -90 62 -191
129 -49 33 -94 63 -100 68 -5 4 -107 73 -225 152 -118 79 -217 147 -220 150
-3 3 -13 10 -22 15 -10 6 -127 84 -260 174 -268 181 -287 189 -366 149z"/>
<path d="M291 3858 c-23 -68 -43 -132 -46 -143 -2 -11 -13 -54 -25 -95 -11
-41 -22 -86 -25 -100 -3 -14 -7 -36 -10 -50 -12 -64 -15 -78 -20 -115 -3 -23
-7 -50 -9 -60 -27 -144 -28 -609 0 -775 2 -14 7 -45 10 -70 21 -156 81 -383
149 -565 34 -94 155 -350 207 -440 75 -129 237 -355 324 -450 122 -134 259
-267 334 -325 25 -19 47 -38 50 -41 16 -19 171 -128 265 -186 238 -149 536
-280 765 -338 8 -2 40 -10 70 -19 45 -12 147 -33 250 -51 22 -4 95 -13 165
-22 129 -15 585 -7 680 12 11 3 38 7 60 10 195 27 483 110 685 197 129 55 343
166 348 179 2 5 8 9 13 9 10 0 179 107 189 120 3 3 21 17 40 30 142 96 439
383 546 526 16 22 32 41 35 44 10 8 143 203 168 245 84 142 145 260 190 370
23 55 46 109 51 120 27 58 103 318 124 425 3 14 8 36 11 50 7 33 12 64 21 125
3 28 8 59 10 70 23 122 23 576 0 715 -3 14 -7 45 -11 70 -3 25 -8 59 -10 75
-12 82 -74 334 -95 380 -5 11 -11 32 -14 47 -3 14 -15 48 -27 75 -17 40 -22
46 -32 33 -7 -8 -32 -31 -57 -50 -25 -19 -50 -40 -56 -45 -6 -6 -30 -27 -53
-46 -24 -18 -57 -47 -74 -62 -18 -16 -51 -43 -75 -60 -49 -37 -49 -30 -8 -182
15 -55 29 -118 32 -139 2 -21 6 -42 9 -46 2 -3 6 -31 10 -61 3 -30 9 -83 14
-119 9 -69 7 -467 -3 -510 -3 -14 -8 -45 -10 -70 -31 -271 -153 -624 -307
-887 -51 -85 -165 -252 -208 -303 -79 -94 -104 -121 -171 -189 -41 -42 -104
-101 -140 -131 -36 -30 -67 -58 -70 -61 -16 -18 -209 -150 -288 -196 -104 -61
-313 -163 -334 -163 -8 0 -18 -4 -23 -8 -11 -9 -128 -49 -240 -81 -78 -22
-194 -47 -270 -57 -27 -3 -58 -8 -68 -10 -117 -22 -452 -21 -614 1 -65 9 -98
15 -123 20 -14 2 -50 10 -80 16 -340 69 -702 238 -990 463 -149 116 -382 350
-424 424 -5 10 -15 22 -22 27 -33 28 -182 269 -249 405 -79 159 -162 397 -190
545 -46 241 -55 325 -55 545 0 137 2 172 15 270 4 30 9 66 10 80 3 24 12 81
20 122 10 49 58 228 75 276 l19 52 -22 16 c-26 19 -226 160 -247 174 -8 6 -37
26 -64 45 -27 19 -53 35 -56 35 -4 0 -26 -55 -49 -122z"/>
<path d="M950 3008 c0 -4 5 -10 10 -13 6 -3 10 -11 10 -18 0 -6 -7 -1 -16 11
-8 12 -26 22 -40 22 -22 0 -24 -4 -24 -48 0 -26 6 -54 13 -61 7 -9 7 -11 1 -8
-7 4 -15 0 -18 -9 -5 -12 -2 -15 11 -9 29 12 48 11 46 -2 -2 -6 6 -11 17 -10
11 1 20 7 20 14 0 7 5 13 10 13 7 0 7 -6 1 -19 -12 -21 -58 -23 -53 -2 2 9 -3
11 -13 7 -9 -3 -19 -6 -21 -6 -3 0 -2 -5 2 -12 4 -6 3 -8 -3 -5 -6 4 -14 0
-17 -8 -6 -18 24 -17 36 0 5 6 8 6 8 -1 0 -7 18 -12 42 -12 30 -1 38 2 28 8
-10 6 -11 10 -3 10 7 0 17 -8 22 -17 6 -10 11 -13 11 -8 0 6 38 10 92 10 51 0
96 -4 100 -10 5 -7 8 -7 8 0 0 15 -16 37 -26 35 -5 -1 -10 4 -12 12 -2 9 0 8
7 -2 6 -8 11 -10 11 -5 0 6 9 -1 19 -14 21 -27 51 -23 46 6 -2 10 -4 24 -4 31
-1 7 -7 10 -13 7 -7 -4 -6 -1 2 7 9 7 15 19 14 26 -1 6 -2 24 -3 38 -1 17 -5
23 -13 19 -7 -4 -4 1 6 9 11 9 16 16 10 17 -5 0 -17 2 -26 4 -13 2 -18 -3 -19
-18 -1 -18 -2 -19 -6 -4 -3 10 -10 16 -16 14 -7 -2 -21 0 -31 6 -16 8 -18 6
-13 -7 4 -9 2 -16 -2 -16 -5 0 -12 8 -15 17 -6 15 -8 15 -17 3 -8 -13 -10 -13
-20 0 -9 12 -10 11 -6 -6 3 -13 -3 -28 -14 -38 -11 -9 -19 -11 -19 -6 0 6 6
13 14 16 8 3 12 12 10 19 -6 14 -144 27 -144 13z m115 -17 c3 -6 -4 -15 -15
-21 -13 -7 -20 -7 -20 0 0 5 7 10 16 10 8 0 12 5 9 10 -3 6 -4 10 -1 10 3 0 7
-4 11 -9z m-120 -31 c0 -17 -7 -24 -25 -27 -18 -2 -21 -1 -10 6 8 5 18 7 22 5
4 -3 8 4 8 16 0 12 -4 19 -8 16 -4 -2 -14 0 -22 5 -11 7 -8 8 10 6 18 -3 25
-10 25 -27z m265 17 c0 -5 -7 -7 -15 -3 -10 4 -14 -1 -12 -17 2 -17 -3 -21
-23 -22 -16 0 -24 5 -22 14 2 10 -4 12 -25 7 -23 -5 -25 -4 -10 5 20 12 52 4
42 -10 -3 -6 4 -9 15 -8 13 1 19 6 15 15 -3 8 -3 17 0 21 6 11 35 9 35 -2z
m-212 -11 c-23 -17 -23 -21 2 -23 13 -1 18 2 14 9 -4 7 -2 8 5 4 16 -11 3 -26
-19 -23 -31 5 -37 17 -16 33 25 18 37 18 14 0z m246 -8 c-3 -4 -9 -8 -15 -8
-5 0 -9 4 -9 8 0 5 7 9 15 9 8 0 12 -4 9 -9z m-178 -20 c4 -7 3 -8 -4 -4 -7 4
-12 2 -12 -3 0 -6 -5 -11 -11 -11 -8 0 -8 5 1 15 15 18 17 18 26 3z m135 -11
c-10 -9 -11 -8 -5 6 3 10 9 15 12 12 3 -3 0 -11 -7 -18z m-111 -2 c0 -8 -4
-15 -10 -15 -5 0 -7 7 -4 15 4 8 8 15 10 15 2 0 4 -7 4 -15z m35 5 c3 -5 1
-10 -4 -10 -6 0 -11 5 -11 10 0 6 2 10 4 10 3 0 8 -4 11 -10z m125 -10 c0 -5
-7 -7 -15 -4 -8 4 -15 8 -15 10 0 2 7 4 15 4 8 0 15 -4 15 -10z m-313 -6 c-3
-3 -12 -4 -19 -1 -8 3 -5 6 6 6 11 1 17 -2 13 -5z m70 0 c-3 -3 -12 -4 -19 -1
-8 3 -5 6 6 6 11 1 17 -2 13 -5z m170 0 c-3 -3 -12 -4 -19 -1 -8 3 -5 6 6 6
11 1 17 -2 13 -5z m-207 -14 c0 -5 -4 -10 -10 -10 -5 0 -10 5 -10 10 0 6 5 10
10 10 6 0 10 -4 10 -10z m95 -21 c0 -19 -6 -24 -25 -24 -18 0 -25 6 -26 20 -1
29 5 35 29 31 16 -2 22 -10 22 -27z m77 21 c2 -3 -5 -16 -15 -30 -9 -13 -17
-20 -17 -16 0 5 7 17 16 27 15 17 15 18 -5 16 -12 -1 -21 -7 -21 -14 0 -7 -5
-13 -10 -13 -7 0 -7 6 -1 19 9 16 48 24 53 11z m68 0 c0 -5 -4 -10 -10 -10 -5
0 -10 5 -10 10 0 6 5 10 10 10 6 0 10 -4 10 -10z m-40 -30 c-6 -11 -15 -18
-20 -15 -4 3 -11 0 -13 -5 -3 -6 -4 -5 -2 2 1 7 8 12 14 11 6 -2 11 4 11 12 0
8 5 15 10 15 7 0 7 -7 0 -20z m75 10 c3 -5 2 -10 -4 -10 -5 0 -13 5 -16 10 -3
6 -2 10 4 10 5 0 13 -4 16 -10z m18 -25 c-3 -9 -8 -14 -10 -11 -3 3 -2 9 2 15
9 16 15 13 8 -4z m-166 -11 c-3 -3 -12 -4 -19 -1 -8 3 -5 6 6 6 11 1 17 -2 13
-5z"/>
<path d="M1023 2881 c-1 -9 6 -17 16 -18 9 -1 17 6 18 16 1 9 -6 17 -16 18 -9
1 -17 -6 -18 -16z"/>
<path d="M4909 2997 c-1 -15 -3 -17 -6 -6 -4 17 -53 24 -53 8 0 -8 15 -13 33
-10 4 0 7 -4 7 -10 0 -6 -6 -9 -14 -6 -11 4 -14 -2 -14 -24 1 -16 -2 -32 -5
-35 -3 -3 -2 -16 3 -28 4 -13 4 -29 -1 -39 -7 -11 -6 -17 1 -17 5 0 10 6 10
13 0 9 2 9 8 0 5 -8 26 -12 55 -10 26 1 49 -2 51 -8 3 -6 5 -6 5 0 1 6 24 9
56 7 46 -3 55 -1 55 13 0 9 -4 14 -9 11 -5 -3 -16 5 -25 19 -16 25 -11 35 16
32 18 -3 54 -37 38 -37 -6 0 -13 6 -16 13 -2 7 -13 13 -24 14 -16 1 -18 -1 -8
-17 7 -10 16 -16 21 -13 4 3 11 -5 14 -16 5 -19 12 -21 59 -18 30 1 54 -1 54
-6 0 -4 6 -3 13 4 12 11 18 79 6 79 -3 0 -6 7 -6 15 0 8 4 15 8 15 4 0 6 8 4
18 -2 9 -4 24 -4 34 -1 13 -14 17 -66 20 -61 3 -78 -3 -55 -17 6 -3 10 -11 10
-18 0 -6 -7 -1 -16 11 -17 24 -81 33 -69 10 4 -7 -1 -4 -11 7 -16 20 -16 20
-11 -3 4 -16 -1 -25 -16 -33 -20 -9 -20 -9 -5 4 21 17 11 33 -24 39 -23 4 -38
-6 -38 -26 0 -1 9 -2 20 -3 13 -1 18 2 14 9 -4 7 -2 8 5 4 18 -11 3 -26 -22
-22 -13 2 -21 10 -21 19 1 9 -5 18 -12 21 -9 4 -14 -2 -15 -17z m258 -3 c-3
-3 -12 -4 -19 -1 -8 3 -5 6 6 6 11 1 17 -2 13 -5z m57 -15 c-3 -5 -14 -7 -24
-4 -13 4 -17 0 -16 -17 1 -18 -4 -23 -24 -23 -26 0 -36 26 -12 31 7 1 8 0 2
-3 -16 -8 -12 -19 9 -20 13 -1 18 5 17 20 -1 17 4 21 22 20 15 -2 21 1 16 9
-4 7 -3 8 5 4 6 -4 9 -12 5 -17z m-119 -9 c0 -7 -6 -14 -13 -16 -7 -1 -8 0 -2
3 16 8 12 19 -9 20 -13 1 -18 -5 -17 -19 0 -12 -6 -23 -14 -25 -9 -3 -11 -1
-5 4 6 4 10 15 10 23 -1 8 0 18 2 22 7 13 48 2 48 -12z m-179 -25 c-3 -9 -10
-14 -15 -11 -5 4 -12 -1 -14 -9 -3 -11 -4 -10 -3 2 1 10 8 17 14 16 7 -2 12 5
12 14 0 9 3 14 6 10 4 -3 4 -13 0 -22z m309 15 c-3 -5 -12 -10 -18 -10 -7 0
-6 4 3 10 19 12 23 12 15 0z m-265 -4 c0 -3 -4 -8 -10 -11 -5 -3 -10 -1 -10 4
0 6 5 11 10 11 6 0 10 -2 10 -4z m52 -21 c-2 -5 5 -13 15 -17 16 -7 16 -8 -2
-5 -11 2 -19 9 -17 15 1 7 -7 12 -19 12 -11 0 -17 -5 -14 -10 9 -15 -21 -23
-42 -11 -15 9 -13 10 10 5 15 -4 27 -2 26 2 -3 20 2 25 24 22 12 -2 21 -7 19
-13z m104 -21 c3 -16 2 -26 -1 -23 -3 4 -8 19 -11 35 -3 16 -2 26 1 23 3 -4 8
-19 11 -35z m84 16 c0 -5 -5 -10 -11 -10 -5 0 -7 5 -4 10 3 6 8 10 11 10 2 0
4 -4 4 -10z m-113 -6 c-3 -3 -12 -4 -19 -1 -8 3 -5 6 6 6 11 1 17 -2 13 -5z
m70 -10 c-3 -3 -12 -4 -19 -1 -8 3 -5 6 6 6 11 1 17 -2 13 -5z m-224 -10 c8
-9 -23 -55 -33 -49 -5 3 -11 0 -13 -5 -3 -6 -4 -5 -2 2 1 7 7 12 12 11 5 -1
15 8 22 19 11 18 11 20 -3 15 -9 -4 -16 -2 -16 3 0 11 23 14 33 4z m67 -4 c0
-5 -4 -10 -10 -10 -5 0 -10 5 -10 10 0 6 5 10 10 10 6 0 10 -4 10 -10z m221
-15 c9 -17 8 -18 -3 -5 -7 8 -21 16 -31 18 -15 3 -16 0 -5 -17 6 -11 16 -19
21 -18 5 1 11 -4 13 -11 1 -7 0 -8 -3 -2 -2 5 -8 8 -13 5 -9 -6 -41 40 -34 48
13 12 46 1 55 -18z m-340 -8 c-10 -9 -11 -8 -5 6 3 10 9 15 12 12 3 -3 0 -11
-7 -18z m82 6 c-16 -6 -17 -24 -2 -20 6 1 14 -5 16 -13 4 -13 3 -13 -6 0 -6 8
-11 11 -11 6 0 -6 -5 -5 -11 1 -13 13 -4 33 14 32 9 0 9 -2 0 -6z m72 -4 c11
-16 1 -19 -13 -3 -7 8 -8 14 -3 14 5 0 13 -5 16 -11z m120 -7 c0 -7 -4 -12 -9
-11 -5 0 -13 -5 -18 -13 -8 -10 -9 -10 -5 2 2 8 10 14 16 13 14 -4 15 14 1 20
-6 3 -5 4 2 3 7 -2 13 -8 13 -14z"/>
<path d="M1340 2034 c0 -12 -49 -39 -64 -35 -5 1 -6 -5 -3 -13 4 -11 1 -13
-10 -9 -11 4 -14 2 -9 -5 4 -8 2 -10 -7 -6 -8 3 -18 1 -22 -5 -3 -6 -1 -12 4
-12 6 -1 17 -2 24 -3 6 0 12 -12 12 -26 0 -19 -5 -25 -24 -25 -15 0 -25 6 -27
18 -1 9 2 17 8 17 6 0 8 -6 5 -14 -4 -10 0 -14 14 -13 21 1 27 33 7 34 -7 0
-21 4 -30 8 -12 5 -18 3 -18 -6 0 -11 -3 -11 -10 1 -8 13 -10 12 -10 -2 0 -10
5 -18 12 -18 6 0 8 -3 5 -6 -4 -4 -13 -1 -21 5 -28 24 -43 -13 -21 -49 9 -14
26 -13 22 2 -1 6 6 14 16 16 9 2 17 -1 17 -7 0 -6 -7 -7 -17 -4 -10 4 -14 2
-9 -5 3 -6 2 -13 -4 -17 -12 -7 -4 -25 11 -25 6 0 7 5 3 12 -4 7 -3 8 4 4 18
-11 14 -26 -5 -27 -12 0 -13 -2 -5 -6 20 -8 68 16 81 40 8 16 10 17 6 3 -5
-16 -3 -17 11 -5 14 12 14 14 -2 26 -10 7 -14 13 -9 13 5 0 16 -7 25 -15 15
-14 18 -14 30 0 9 10 9 15 1 16 -6 1 -17 2 -23 3 -17 1 -17 29 0 32 7 1 8 0 2
-3 -14 -7 -13 -19 3 -21 58 -7 62 -7 65 13 2 15 -3 21 -17 22 -13 1 -18 -3
-14 -13 3 -8 1 -14 -5 -14 -6 0 -9 8 -8 18 4 25 46 24 55 -1 5 -13 10 -16 15
-9 3 6 -3 28 -15 49 -30 53 -49 79 -49 67z m-6 -39 c-9 -14 -20 -22 -25 -19
-5 3 -9 0 -9 -6 0 -8 10 -10 28 -6 22 5 24 4 9 -5 -21 -12 -51 -5 -45 12 2 6
8 11 13 11 6 0 16 9 23 19 20 28 25 23 6 -6z m36 -30 c0 -5 -5 -3 -10 5 -5 8
-10 20 -10 25 0 6 5 3 10 -5 5 -8 10 -19 10 -25z m-82 -30 c-3 -3 -9 2 -12 12
-6 14 -5 15 5 6 7 -7 10 -15 7 -18z m-118 -35 c0 -5 -5 -10 -11 -10 -5 0 -7 5
-4 10 3 6 8 10 11 10 2 0 4 -4 4 -10z m82 -27 c-6 -2 -10 -9 -7 -14 4 -5 -2
-6 -12 -2 -16 6 -17 5 -3 -13 14 -18 14 -18 -3 -5 -18 14 -18 16 -1 28 10 7
23 13 28 12 6 0 5 -3 -2 -6z"/>
<path d="M4774 1992 c2 -15 5 -31 5 -36 1 -4 11 -1 24 7 17 11 28 12 38 5 11
-8 9 -8 -6 -4 -19 6 -19 6 -1 -9 10 -8 23 -12 29 -8 6 4 7 1 2 -7 -6 -9 -4
-11 5 -5 9 6 11 4 5 -6 -7 -11 -5 -11 11 1 17 14 18 13 7 -1 -10 -13 -10 -16
2 -16 8 0 12 3 10 7 -2 4 2 7 10 7 12 0 12 -3 3 -15 -9 -11 -9 -13 3 -11 7 1
22 -1 31 -5 16 -7 16 -10 -5 -27 -13 -11 -17 -18 -9 -19 7 0 10 -5 6 -12 -4
-7 -3 -8 5 -4 6 4 9 12 6 17 -4 5 -2 9 2 9 5 0 14 9 21 21 8 12 9 18 4 15 -6
-3 -13 1 -16 10 -3 8 -10 13 -15 10 -5 -3 -12 1 -15 10 -4 9 -9 14 -12 11 -3
-3 -14 2 -25 11 -11 9 -23 17 -27 16 -4 0 -29 12 -55 28 l-48 28 5 -28z m36
-7 c0 -12 -19 -12 -23 0 -4 9 -1 12 9 8 7 -3 14 -7 14 -8z"/>
<path d="M4737 1954 c-10 -19 -13 -33 -8 -30 5 3 12 -1 15 -10 3 -9 12 -14 19
-11 6 2 20 -5 30 -16 9 -11 17 -16 17 -12 0 4 9 0 20 -10 11 -10 20 -14 20 -8
0 5 7 18 16 29 8 10 13 13 9 7 -11 -22 -14 -54 -5 -48 4 3 10 0 12 -5 2 -6 12
-12 21 -14 10 -1 23 -9 28 -17 11 -18 11 -7 0 25 -7 18 -6 28 4 36 16 13 10
34 -6 24 -5 -3 -16 0 -24 6 -8 7 -15 9 -15 5 0 -3 -16 7 -37 24 -28 23 -40 28
-54 20 -14 -7 -21 -5 -28 10 -6 10 -7 21 -4 25 3 3 2 6 -3 6 -6 0 -18 -16 -27
-36z m63 -14 c15 8 22 6 33 -10 7 -11 16 -17 19 -14 3 3 9 0 14 -7 4 -8 3 -10
-4 -5 -7 4 -12 2 -12 -4 0 -7 -7 -10 -17 -6 -15 5 -15 4 1 -9 11 -8 15 -15 9
-15 -6 0 -25 13 -42 29 -17 16 -31 25 -31 20 0 -15 -17 -10 -24 6 -3 8 -3 22
1 30 5 13 8 13 20 -5 11 -16 18 -18 33 -10z m132 -55 c7 4 5 0 -5 -8 -10 -8
-17 -19 -16 -23 4 -23 -3 -26 -21 -9 -15 14 -17 22 -9 37 8 15 13 17 24 8 8
-7 20 -9 27 -5z"/>
<path d="M4750 1940 c0 -5 5 -10 11 -10 5 0 7 5 4 10 -3 6 -8 10 -11 10 -2 0
-4 -4 -4 -10z"/>
<path d="M4800 1930 c-17 -11 -8 -23 20 -25 15 -1 17 2 9 17 -11 21 -10 20
-29 8z"/>
<path d="M4887 1876 c-3 -8 2 -20 11 -28 15 -11 16 -11 4 4 -10 13 -10 17 0
20 8 3 9 6 1 11 -6 4 -13 0 -16 -7z"/>
<path d="M2070 1275 c0 -8 -8 -19 -17 -25 -17 -9 -17 -11 0 -21 9 -5 14 -15
11 -21 -5 -7 2 -9 22 -4 24 5 26 4 11 -5 -21 -12 -51 -4 -42 11 10 16 -12 12
-29 -6 -15 -15 -20 -29 -17 -48 1 -4 -6 -14 -16 -22 -10 -7 -15 -14 -11 -14 4
0 -4 -12 -18 -27 l-26 -28 33 -27 c23 -19 36 -24 45 -18 8 8 13 4 17 -11 l6
-20 20 20 c22 22 28 37 11 26 -5 -3 -10 -1 -10 4 0 6 6 11 14 11 20 0 29 17
15 26 -8 5 -9 3 -4 -5 6 -10 3 -11 -14 -1 -12 6 -19 15 -16 21 4 5 -4 9 -16 9
-21 0 -22 -1 -4 -20 10 -11 16 -22 14 -24 -2 -2 -12 7 -22 20 -16 21 -16 25
-3 30 21 8 49 -3 41 -16 -4 -6 3 -9 17 -7 13 2 23 9 22 15 -1 7 -2 18 -2 25
-1 8 -12 13 -24 13 -13 -1 -23 5 -24 12 -1 6 -2 17 -3 23 0 5 -5 7 -11 4 -5
-3 -10 -1 -10 4 0 6 4 11 10 11 13 0 31 -36 22 -45 -4 -4 3 -5 16 -2 17 4 25
0 31 -15 5 -14 10 -18 15 -10 4 7 4 12 0 12 -4 0 0 6 10 13 10 8 19 26 19 41
0 15 2 24 5 22 3 -3 11 -1 19 6 20 16 -55 60 -76 44 -12 -9 -13 -8 -9 6 4 10
1 19 -8 22 -8 3 -14 -1 -14 -9z m20 -46 c0 -6 -4 -7 -10 -4 -5 3 -10 11 -10
16 0 6 5 7 10 4 6 -3 10 -11 10 -16z m34 6 c-4 -8 -8 -15 -10 -15 -2 0 -4 7
-4 15 0 8 4 15 10 15 5 0 7 -7 4 -15z m26 -9 c0 -2 -7 -9 -15 -16 -13 -11 -14
-10 -9 4 5 14 24 23 24 12z m-28 -43 c-20 -4 -21 -7 -10 -21 11 -15 11 -15 -3
-5 -9 7 -18 10 -21 7 -3 -3 -9 0 -14 7 -4 7 -3 10 4 5 6 -3 13 -2 17 4 3 5 16
9 28 9 21 -2 21 -2 -1 -6z m-92 -57 c0 -2 -7 -7 -16 -10 -8 -3 -12 -2 -9 4 6
10 25 14 25 6z m-4 -83 c-3 -4 -6 -2 -6 4 0 13 -32 12 -43 -2 -5 -6 -7 -4 -4
5 2 8 13 14 23 12 15 -3 17 -1 7 9 -7 7 -13 17 -13 22 0 5 10 -2 21 -17 12
-15 19 -30 15 -33z"/>
<path d="M4008 1253 c-10 -2 -18 -9 -18 -14 0 -6 -5 -7 -12 -3 -7 4 -8 3 -4
-4 6 -11 -6 -17 -27 -13 -11 2 11 -39 37 -68 11 -13 15 -21 7 -16 -9 5 -12 4
-7 -3 4 -7 15 -12 24 -12 15 0 15 -2 2 -10 -13 -8 -13 -10 1 -10 21 0 31 -24
16 -39 -8 -8 -6 -11 7 -11 12 0 16 -5 12 -16 -3 -8 -2 -13 3 -10 5 3 12 -6 16
-22 6 -25 8 -25 19 -9 7 9 18 17 23 17 6 0 16 7 23 15 9 10 9 15 1 15 -6 0
-11 -5 -11 -12 0 -6 -7 -3 -15 8 -12 17 -12 20 2 32 9 6 22 12 27 12 6 -1 0
-7 -14 -15 -22 -13 -21 -20 4 -16 4 1 15 -4 23 -11 14 -11 15 -10 8 11 -7 23
-44 91 -50 91 -7 0 1 -36 10 -43 6 -5 4 -7 -4 -5 -16 5 -23 46 -9 54 5 3 -1
19 -13 35 -18 25 -23 28 -37 17 -12 -9 -11 -6 2 10 20 23 9 31 -12 10 -17 -17
-35 2 -21 22 9 12 10 12 5 -3 -4 -12 -2 -17 6 -15 15 5 17 30 3 33 -5 2 -18 1
-27 -2z m18 -60 c-6 -6 -36 9 -36 18 0 5 9 4 20 -3 10 -7 18 -14 16 -15z m-16
-23 c0 -7 -13 -7 -38 -1 -2 1 -1 5 3 11 6 10 35 2 35 -10z m60 10 c-13 -9 -7
-14 13 -11 4 0 7 -3 7 -9 0 -15 -27 -12 -33 4 -6 16 1 26 17 26 6 0 4 -5 -4
-10z m-40 -30 c-6 -12 -14 -20 -17 -17 -2 3 1 14 8 26 17 26 24 19 9 -9z m17
-31 c0 -21 -3 -26 -9 -16 -4 9 -5 22 -2 31 9 23 11 20 11 -15z m33 1 c0 -5 -4
-10 -10 -10 -5 0 -10 5 -10 10 0 6 5 10 10 10 6 0 10 -4 10 -10z m10 -41 c0
-5 -4 -8 -9 -4 -5 3 -12 1 -16 -5 -3 -5 -1 -10 6 -10 7 0 10 -3 6 -6 -10 -11
-26 6 -20 21 6 17 33 20 33 4z m0 -46 c0 -5 -5 -15 -10 -23 -7 -12 -9 -10 -7
8 1 19 17 33 17 15z"/>
<path d="M2972 1103 c-1 -17 2 -22 11 -17 8 5 7 2 -2 -9 -11 -14 -11 -20 0
-34 10 -11 10 -14 2 -9 -7 4 -13 2 -13 -3 0 -6 6 -11 13 -11 7 0 8 -3 2 -8
-15 -11 -19 -46 -4 -36 8 5 10 3 4 -7 -14 -21 -15 -60 -3 -53 7 5 8 2 2 -7
-14 -23 -16 -51 -2 -43 7 5 8 3 2 -7 -12 -19 -13 -90 -1 -82 5 3 4 -4 -2 -15
-7 -14 -8 -23 -1 -27 5 -3 10 -1 10 5 0 7 12 9 36 4 30 -5 35 -4 29 7 -6 11
-5 12 6 2 16 -16 33 -17 23 -1 -5 7 -3 8 7 2 23 -14 57 -15 65 -3 5 9 2 10
-12 6 -18 -7 -18 -6 -1 7 17 13 24 32 8 22 -5 -3 -8 1 -7 10 0 10 -8 18 -20
20 -15 3 -20 -2 -20 -18 1 -12 -6 -22 -17 -24 -9 -1 -15 2 -11 7 3 5 10 7 16
3 6 -4 8 3 6 17 -2 19 2 24 20 25 12 1 25 -3 28 -7 3 -5 10 -9 15 -9 6 0 7 6
2 13 -12 19 -13 107 -1 107 7 0 7 4 0 13 -5 6 -8 23 -6 36 3 14 -2 28 -12 36
-14 9 -14 14 -4 20 9 5 11 4 6 -3 -4 -7 -3 -12 2 -12 16 0 12 68 -4 74 -7 3
-11 12 -8 20 4 11 -10 14 -78 13 -81 -1 -84 -2 -86 -24z m33 7 c-3 -5 -12 -10
-18 -10 -7 0 -6 4 3 10 19 12 23 12 15 0z m83 -15 c-3 -3 -9 2 -12 12 -6 14
-5 15 5 6 7 -7 10 -15 7 -18z m-23 -16 c0 -19 -6 -24 -25 -24 -16 0 -26 7 -28
18 -2 9 1 17 7 17 6 0 8 -6 5 -13 -2 -7 3 -13 14 -14 11 -1 18 6 19 18 1 11
-2 17 -6 15 -4 -3 -13 0 -21 5 -11 7 -8 8 10 6 19 -3 25 -10 25 -28z m75 1
c18 -12 2 -12 -25 0 -13 6 -15 9 -5 9 8 0 22 -4 30 -9z m-131 -50 c0 -10 -3
-8 -9 5 -12 27 -12 43 0 25 5 -8 9 -22 9 -30z m113 8 c-7 -7 -12 -8 -12 -2 0
14 12 26 19 19 2 -3 -1 -11 -7 -17z m-72 -2 c0 -3 -4 -8 -10 -11 -5 -3 -10 -1
-10 4 0 6 5 11 10 11 6 0 10 -2 10 -4z m52 -35 c-2 -14 0 -21 6 -17 16 10 24
-12 12 -31 -9 -16 -10 -15 -5 5 5 16 3 22 -7 20 -8 -2 -13 6 -12 20 0 15 -5
22 -18 22 -10 0 -17 -5 -15 -11 1 -6 -5 -14 -13 -16 -13 -4 -13 -3 0 6 8 6 11
11 7 11 -5 0 -5 5 -2 11 4 5 17 9 28 7 17 -2 21 -9 19 -27z m-72 -1 c0 -5 -4
-10 -10 -10 -5 0 -10 5 -10 10 0 6 5 10 10 10 6 0 10 -4 10 -10z m115 -8 c-3
-3 -11 0 -18 7 -9 10 -8 11 6 5 10 -3 15 -9 12 -12z m-113 -38 c-5 -10 -17
-19 -26 -20 -9 -1 -14 2 -10 7 3 5 9 7 14 4 5 -3 12 4 15 16 4 11 9 18 12 16
3 -3 0 -13 -5 -23z m53 6 c-3 -5 -11 -10 -16 -10 -6 0 -7 5 -4 10 3 6 11 10
16 10 6 0 7 -4 4 -10z m-38 -30 c-1 -10 -3 -17 -6 -15 -2 3 -10 -3 -18 -13 -8
-9 -6 -2 3 16 21 37 23 39 21 12z m98 10 c3 -5 1 -10 -4 -10 -6 0 -11 5 -11
10 0 6 2 10 4 10 3 0 8 -4 11 -10z m-46 -20 c-6 -5 -18 -6 -26 -3 -19 8 -16
11 13 11 17 0 22 -3 13 -8z m26 -10 c-3 -5 -1 -10 6 -10 7 0 10 -2 7 -5 -3 -3
-13 -2 -22 1 -14 5 -15 9 -4 15 17 11 20 11 13 -1z m-49 -12 c4 -7 3 -8 -4 -4
-7 4 -12 3 -12 -3 0 -5 6 -12 13 -14 9 -4 9 -6 0 -6 -15 -1 -26 16 -18 29 8
13 12 13 21 -2z m-61 -27 c-6 -5 -25 10 -25 20 0 5 6 4 14 -3 8 -7 12 -15 11
-17z m91 4 c-3 -9 0 -15 9 -15 8 0 15 -5 15 -10 0 -17 -33 5 -36 24 -1 9 2 16
8 16 6 0 8 -7 4 -15z m-56 -15 c0 -5 -4 -10 -10 -10 -5 0 -10 5 -10 10 0 6 5
10 10 10 6 0 10 -4 10 -10z m-30 -14 c0 -2 -7 -6 -15 -10 -8 -3 -15 -1 -15 4
0 6 7 10 15 10 8 0 15 -2 15 -4z m70 -8 c0 -4 -7 -8 -15 -8 -8 0 -15 4 -15 8
0 5 7 9 15 9 8 0 15 -4 15 -9z m-42 -23 c-3 -3 -9 2 -12 12 -6 14 -5 15 5 6 7
-7 10 -15 7 -18z m-22 -13 c-2 -10 5 -20 18 -24 18 -6 18 -7 -4 -5 -15 2 -24
8 -22 16 2 9 -3 11 -15 7 -17 -6 -17 -5 -1 7 10 8 14 18 10 22 -4 5 -2 5 5 2
6 -4 10 -15 9 -25z m49 -2 c-3 -5 -11 -10 -16 -10 -6 0 -7 5 -4 10 3 6 11 10
16 10 6 0 7 -4 4 -10z m46 -33 c-10 -9 -11 -8 -5 6 3 10 9 15 12 12 3 -3 0
-11 -7 -18z"/>
<path d="M3146 1115 c-3 -8 -1 -15 4 -15 6 0 10 7 10 15 0 8 -2 15 -4 15 -2 0
-6 -7 -10 -15z"/>
</g>
</svg>
